<svg xmlns="http://www.w3.org/2000/svg" version="1.1" xmlns:xlink="http://www.w3.org/1999/xlink" xmlns:svgjs="http://svgjs.com/svgjs" width="1440" height="250" preserveAspectRatio="none" viewBox="0 0 1440 250"><g mask="url(&quot;#SvgjsMask1575&quot;)" fill="none"><rect width="1440" height="250" x="0" y="0" fill="url(#SvgjsLinearGradient1576)"></rect><path d="M2 250L252 0L318 0L68 250z" fill="url(#SvgjsLinearGradient1577)"></path><path d="M277.6 250L527.6 0L667.1 0L417.1 250z" fill="url(#SvgjsLinearGradient1577)"></path><path d="M497.20000000000005 250L747.2 0L958.7 0L708.7 250z" fill="url(#SvgjsLinearGradient1577)"></path><path d="M729.8000000000001 250L979.8000000000001 0L1311.3000000000002 0L1061.3000000000002 250z" fill="url(#SvgjsLinearGradient1577)"></path><path d="M1395 250L1145 0L882.5 0L1132.5 250z" fill="url(#SvgjsLinearGradient1578)"></path><path d="M1182.4 250L932.4000000000001 0L788.4000000000001 0L1038.4 250z" fill="url(#SvgjsLinearGradient1578)"></path><path d="M937.8 250L687.8 0L417.79999999999995 0L667.8 250z" fill="url(#SvgjsLinearGradient1578)"></path><path d="M686.1999999999999 250L436.19999999999993 0L349.19999999999993 0L599.1999999999999 250z" fill="url(#SvgjsLinearGradient1578)"></path><path d="M1224.4960048256805 250L1440 34.49600482568047L1440 250z" fill="url(#SvgjsLinearGradient1577)"></path><path d="M0 250L215.50399517431953 250L 0 34.49600482568047z" fill="url(#SvgjsLinearGradient1578)"></path></g><defs><mask id="SvgjsMask1575"><rect width="1440" height="250" fill="#ffffff"></rect></mask><linearGradient x1="0%" y1="50%" x2="100%" y2="50%" gradientUnits="userSpaceOnUse" id="SvgjsLinearGradient1576"><stop stop-color="#0e2a47" offset="0"></stop><stop stop-color="rgba(141, 186, 25, 0.59)" offset="1"></stop></linearGradient><linearGradient x1="0%" y1="100%" x2="100%" y2="0%" id="SvgjsLinearGradient1577"><stop stop-color="rgba(28, 44, 104, 1)" offset="0"></stop><stop stop-opacity="0" stop-color="rgba(28, 44, 104, 1)" offset="0.66"></stop></linearGradient><linearGradient x1="100%" y1="100%" x2="0%" y2="0%" id="SvgjsLinearGradient1578"><stop stop-color="rgba(28, 44, 104, 1)" offset="0"></stop><stop stop-opacity="0" stop-color="rgba(28, 44, 104, 1)" offset="0.66"></stop></linearGradient></defs></svg>