<?xml version="1.0" encoding="utf-8"?><svg xmlns="http://www.w3.org/2000/svg" xmlns:xlink="http://www.w3.org/1999/xlink" width="1536" height="796" preserveAspectRatio="xMidYMid" viewBox="0 0 1536 796" style="z-index:1;margin-right:-2px;display:block;background-repeat-y:initial;background-repeat-x:initial;background-color:rgb(255, 255, 255);animation-play-state:paused" ><g transform="translate(768,398) scale(1,1) translate(-768,-398)" style="transform:matrix(1, 0, 0, 1, 0, 0);animation-play-state:paused" ><g transform="translate(1612.8000000000002,398) scale(100)" opacity="0.9" style="transform:matrix(100, 0, 0, 100, 1612.8, 398);opacity:0.9;animation-play-state:paused" ><path d="M4.224 0 C4.224 1.9430399999999999 12.45097065240569 3.0542295680796876 11.707401435983027 4.849364454930418 S4.360755803848686 1.6128822836152674 2.9868190437319773 2.986819043731977 S6.644499341781149 10.963832219560363 4.849364454930418 11.707401435983027 S1.94304 4.224 2.58645403979921e-16 4.224 S-3.0542295680796867 12.45097065240569 -4.849364454930417 11.707401435983027 S-1.6128822836152674 4.360755803848686 -2.986819043731977 2.9868190437319773 S-10.963832219560363 6.64449934178115 -11.707401435983027 4.849364454930419 S-4.224 1.9430400000000003 -4.224 5.17290807959842e-16 S-12.450970652405692 -3.054229568079686 -11.707401435983028 -4.8493644549304165 S-4.360755803848686 -1.6128822836152672 -2.9868190437319777 -2.986819043731977 S-6.644499341781155 -10.963832219560357 -4.849364454930425 -11.707401435983023 S-1.9430400000000005 -4.224 -7.7593621193976295e-16 -4.224 S3.0542295680796907 -12.450970652405688 4.849364454930421 -11.707401435983025 S1.6128822836152663 -4.360755803848686 2.986819043731976 -2.9868190437319777 S10.963832219560357 -6.644499341781155 11.707401435983023 -4.849364454930425 S4.223999999999999 -1.943040000000001 4.224 -1.034581615919684e-15" fill="#1c2c68" stroke-width="0" transform="matrix(1,0,0,1,0,0)" style="transform:matrix(1, 0, 0, 1, 0, 0);animation-play-state:paused" ></path></g>
<g transform="translate(1781.76,398) scale(100)" opacity="0.9" style="transform:matrix(100, 0, 0, 100, 1781.76, 398);opacity:0.9;animation-play-state:paused" ><path d="M5.0687999999999995 0 C5.0687999999999995 2.3316479999999995 14.941164782886826 3.6650754816956246 14.04888172317963 5.819237345916501 S5.232906964618422 1.9354587403383208 3.584182852478372 3.5841828524783717 S7.973399210137378 13.156598663472433 5.819237345916502 14.04888172317963 S2.331648 5.0687999999999995 3.1037448477590516e-16 5.0687999999999995 S-3.6650754816956237 14.941164782886826 -5.8192373459165 14.04888172317963 S-1.9354587403383208 5.232906964618422 -3.5841828524783717 3.584182852478372 S-13.156598663472433 7.973399210137379 -14.04888172317963 5.819237345916503 S-5.0687999999999995 2.331648 -5.0687999999999995 6.207489695518103e-16 S-14.941164782886828 -3.665075481695623 -14.048881723179631 -5.819237345916499 S-5.232906964618423 -1.9354587403383205 -3.5841828524783725 -3.5841828524783717 S-7.9733992101373845 -13.156598663472428 -5.819237345916509 -14.048881723179626 S-2.3316480000000004 -5.0687999999999995 -9.311234543277154e-16 -5.0687999999999995 S3.6650754816956277 -14.941164782886824 5.819237345916504 -14.048881723179628 S1.9354587403383197 -5.232906964618423 3.5841828524783708 -3.5841828524783725 S13.156598663472428 -7.973399210137385 14.048881723179626 -5.81923734591651 S5.068799999999999 -2.331648000000001 5.0687999999999995 -1.2414979391036206e-15" fill="#00808a" stroke-width="0" transform="matrix(1,0,0,1,0,0)" style="transform:matrix(1, 0, 0, 1, 0, 0);animation-play-state:paused" ></path></g>
<g transform="translate(2187.264,398) scale(100)" opacity="0.9" style="transform:matrix(100, 0, 0, 100, 2187.26, 398);opacity:0.9;animation-play-state:paused" ><path d="M7.0963199999999995 0 C7.0963199999999995 3.2643071999999997 20.917630696041556 5.131105674373874 19.668434412451482 8.146932284283102 S7.326069750465792 2.7096422364736483 5.017855993469721 5.01785599346972 S11.162758894192331 18.419238128861405 8.146932284283103 19.668434412451482 S3.2643072 7.0963199999999995 4.3452427868626726e-16 7.0963199999999995 S-5.131105674373872 20.917630696041556 -8.1469322842831 19.668434412451482 S-2.7096422364736483 7.326069750465792 -5.01785599346972 5.017855993469721 S-18.419238128861405 11.162758894192331 -19.668434412451482 8.146932284283103 S-7.0963199999999995 3.2643072000000006 -7.0963199999999995 8.690485573725345e-16 S-20.91763069604156 -5.131105674373872 -19.668434412451486 -8.1469322842831 S-7.326069750465793 -2.709642236473648 -5.0178559934697216 -5.01785599346972 S-11.16275889419234 -18.4192381288614 -8.146932284283114 -19.66843441245148 S-3.264307200000001 -7.096319999999999 -1.3035728360588017e-15 -7.0963199999999995 S5.13110567437388 -20.917630696041556 8.146932284283107 -19.66843441245148 S2.709642236473648 -7.326069750465793 5.01785599346972 -5.0178559934697216 S18.4192381288614 -11.16275889419234 19.66843441245148 -8.146932284283114 S7.096319999999999 -3.2643072000000015 7.0963199999999995 -1.738097114745069e-15" fill="#8dba19" stroke-width="0" transform="matrix(1,0,0,1,0,0)" style="transform:matrix(1, 0, 0, 1, 0, 0);animation-play-state:paused" ></path></g></g></svg>