<?xml version="1.0" encoding="utf-8"?><svg xmlns="http://www.w3.org/2000/svg" xmlns:xlink="http://www.w3.org/1999/xlink" width="1536" height="796" preserveAspectRatio="xMidYMid" viewBox="0 0 1536 796" style="z-index:1;margin-right:-2px;display:block;background-repeat-y:initial;background-repeat-x:initial;background-color:rgb(255, 255, 255);animation-play-state:paused" ><g transform="translate(768,398) scale(1,1) translate(-768,-398)" style="transform:matrix(1, 0, 0, 1, 0, 0);animation-play-state:paused" ><g transform="translate(1766.4,398) scale(100)" opacity="0.9" style="transform:matrix(100, 0, 0, 100, 1766.4, 398);opacity:0.9;animation-play-state:paused" ><path d="M4.992000000000001 0 C4.992000000000001 2.29632 14.714783498297637 3.609544035003267 13.836019878889033 5.731067083099585 S5.153620495457539 1.9061336079089526 3.529877051683246 3.5298770516832456 S7.852590131195905 12.95725625948043 5.731067083099586 13.836019878889033 S2.2963200000000006 4.992000000000001 3.056718410671794e-16 4.992000000000001 S-3.609544035003266 14.714783498297637 -5.7310670830995845 13.836019878889033 S-1.9061336079089526 5.153620495457539 -3.5298770516832456 3.529877051683246 S-12.95725625948043 7.852590131195905 -13.836019878889033 5.731067083099587 S-4.992000000000001 2.2963200000000006 -4.992000000000001 6.113436821343588e-16 S-14.714783498297638 -3.6095440350032653 -13.836019878889035 -5.731067083099584 S-5.153620495457539 -1.9061336079089524 -3.5298770516832465 -3.5298770516832456 S-7.852590131195912 -12.957256259480426 -5.731067083099594 -13.83601987888903 S-2.296320000000001 -4.992000000000001 -9.170155232015382e-16 -4.992000000000001 S3.609544035003271 -14.714783498297635 5.731067083099589 -13.836019878889031 S1.906133607908952 -5.153620495457539 3.529877051683245 -3.5298770516832465 S12.957256259480426 -7.852590131195912 13.83601987888903 -5.731067083099595 S4.992 -2.2963200000000015 4.992000000000001 -1.2226873642687177e-15" fill="#1c2c68" stroke-width="0" transform="matrix(1,0,0,1,0,0)" style="transform:matrix(1, 0, 0, 1, 0, 0);animation-play-state:paused" ></path></g>
<g transform="translate(1966.0800000000002,398) scale(100)" opacity="0.9" style="transform:matrix(100, 0, 0, 100, 1966.08, 398);opacity:0.9;animation-play-state:paused" ><path d="M5.990400000000001 0 C5.990400000000001 2.7555840000000003 17.657740197957164 4.331452842003921 16.60322385466684 6.877280499719503 S6.184344594549047 2.2873603294907427 4.235852462019896 4.235852462019895 S9.423108157435085 15.548707511376517 6.877280499719504 16.60322385466684 S2.7555840000000007 5.990400000000001 3.668062092806153e-16 5.990400000000001 S-4.3314528420039204 17.657740197957164 -6.877280499719502 16.60322385466684 S-2.2873603294907427 6.184344594549047 -4.235852462019895 4.235852462019896 S-15.548707511376517 9.423108157435086 -16.60322385466684 6.877280499719505 S-5.990400000000001 2.755584000000001 -5.990400000000001 7.336124185612306e-16 S-17.657740197957164 -4.331452842003918 -16.60322385466684 -6.8772804997195 S-6.184344594549047 -2.2873603294907427 -4.235852462019896 -4.235852462019895 S-9.423108157435093 -15.548707511376511 -6.877280499719513 -16.603223854666837 S-2.755584000000001 -5.9904 -1.1004186278418459e-15 -5.990400000000001 S4.331452842003925 -17.65774019795716 6.8772804997195065 -16.603223854666837 S2.287360329490742 -6.184344594549047 4.235852462019894 -4.235852462019896 S15.548707511376511 -9.423108157435095 16.603223854666837 -6.877280499719514 S5.9904 -2.7555840000000016 5.990400000000001 -1.4672248371224612e-15" fill="#8dba19" stroke-width="0" transform="matrix(1,0,0,1,0,0)" style="transform:matrix(1, 0, 0, 1, 0, 0);animation-play-state:paused" ></path></g></g></svg>