<?xml version="1.0" encoding="utf-8"?><svg xmlns="http://www.w3.org/2000/svg" xmlns:xlink="http://www.w3.org/1999/xlink" width="1536" height="965" preserveAspectRatio="xMidYMid" viewBox="0 0 1536 965" style="z-index:1;margin-right:-2px;display:block;background-repeat-y:initial;background-repeat-x:initial;animation-play-state:paused" ><g transform="translate(768,482.5) scale(1,1) translate(-768,-482.5)" style="transform:matrix(1, 0, 0, 1, 0, 0);animation-play-state:paused" ><g transform="translate(2304,482.5) scale(100)" opacity="0.9" style="transform:matrix(100, 0, 0, 100, 2304, 482.5);opacity:0.9;animation-play-state:paused" ><path d="M11.5968 0 C11.5968 3.84 18.481177001650575 6.236062449467754 16.561177001650577 9.561599999999999 S9.123937550532245 8.123123402607378 5.798400000000001 10.043123402607378 S3.840000000000001 19.1232 1.1709582834727333e-15 19.1232 S-2.472862449467753 11.963123402607376 -5.798399999999997 10.043123402607378 S-14.641177001650572 12.887137550532252 -16.561177001650574 9.561600000000007 S-11.5968 3.840000000000001 -11.5968 1.4201984000352025e-15 S-18.48117700165058 -6.236062449467751 -16.56117700165058 -9.561599999999995 S-9.123937550532249 -8.123123402607375 -5.798400000000005 -10.043123402607376 S-3.8400000000000034 -19.1232 -3.5128748504181998e-15 -19.1232 S2.4728624494677462 -11.96312340260738 5.798399999999992 -10.043123402607383 S14.641177001650572 -12.887137550532252 16.561177001650574 -9.56160000000001 S11.596799999999998 -3.8400000000000025 11.5968 -2.840396800070405e-15" fill="#1c2c68" stroke-width="0" transform="matrix(1,0,0,1,0,0)" style="transform:matrix(1, 0, 0, 1, 0, 0);animation-play-state:paused" ></path></g>
<g transform="translate(2611.2,482.5) scale(100)" opacity="0.9" style="transform:matrix(100, 0, 0, 100, 2611.2, 482.5);opacity:0.9;animation-play-state:paused" ><path d="M13.91616 0 C13.91616 4.608 22.177412401980693 7.483274939361305 19.873412401980694 11.473919999999998 S10.948725060638694 9.747748083128853 6.958080000000002 12.051748083128853 S4.608000000000001 22.94784 1.40514994016728e-15 22.94784 S-2.9674349393613038 14.355748083128853 -6.958079999999997 12.051748083128855 S-17.569412401980685 15.464565060638698 -19.873412401980687 11.473920000000007 S-13.91616 4.608000000000001 -13.91616 1.7042380800422431e-15 S-22.177412401980696 -7.483274939361299 -19.873412401980698 -11.473919999999993 S-10.948725060638697 -9.74774808312885 -6.958080000000006 -12.051748083128851 S-4.608000000000004 -22.94784 -4.215449820501839e-15 -22.94784 S2.967434939361296 -14.355748083128855 6.958079999999991 -12.051748083128858 S17.569412401980685 -15.464565060638702 19.873412401980687 -11.47392000000001 S13.916159999999998 -4.608000000000003 13.91616 -3.4084761600844862e-15" fill="#00808a" stroke-width="0" transform="matrix(1,0,0,1,0,0)" style="transform:matrix(1, 0, 0, 1, 0, 0);animation-play-state:paused" ></path></g>
<g transform="translate(3348.4799999999996,482.5) scale(100)" opacity="0.9" style="transform:matrix(100, 0, 0, 100, 3348.48, 482.5);opacity:0.9;animation-play-state:paused" ><path d="M19.482623999999998 0 C19.482623999999998 6.451199999999999 31.04837736277297 10.476584915105825 27.82277736277297 16.063487999999996 S15.32821508489417 13.646847316380391 9.741312 16.87244731638039 S6.451200000000001 32.126976 1.9672099162341917e-15 32.126976 S-4.154408915105825 20.098047316380395 -9.741311999999995 16.872447316380395 S-24.59717736277296 21.650391084894178 -27.822777362772964 16.06348800000001 S-19.482623999999998 6.451200000000002 -19.482623999999998 2.38593331205914e-15 S-31.04837736277297 -10.476584915105818 -27.822777362772975 -16.06348799999999 S-15.328215084894175 -13.64684731638039 -9.741312000000008 -16.87244731638039 S-6.451200000000005 -32.126976 -5.901629748702575e-15 -32.126976 S4.154408915105814 -20.0980473163804 9.741311999999986 -16.872447316380402 S24.597177362772957 -21.65039108489418 27.82277736277296 -16.063488000000014 S19.482623999999998 -6.451200000000004 19.482623999999998 -4.77186662411828e-15" fill="#8dba19" stroke-width="0" transform="matrix(1,0,0,1,0,0)" style="transform:matrix(1, 0, 0, 1, 0, 0);animation-play-state:paused" ></path></g></g></svg>