<?xml version="1.0" encoding="utf-8"?><svg xmlns="http://www.w3.org/2000/svg" xmlns:xlink="http://www.w3.org/1999/xlink" width="1536" height="965" preserveAspectRatio="xMidYMid" viewBox="0 0 1536 965" style="z-index:1;margin-right:-2px;display:block;background-repeat-y:initial;background-repeat-x:initial;animation-play-state:paused" ><g transform="translate(768,482.5) scale(1,1) translate(-768,-482.5)" style="transform:matrix(1, 0, 0, 1, 0, 0);animation-play-state:paused" ><g transform="translate(1854.1160159025371,-603.6160159025369) scale(100)" opacity="0.9" style="transform:matrix(100, 0, 0, 100, 1854.12, -603.616);opacity:0.9;animation-play-state:paused" ><path d="M7.68 0 C7.68 15.36 27.164201950187824 -5.373763337681696 21.286184429060047 8.817026281691668 S16.291740238538054 -5.430580079512686 5.430580079512685 5.430580079512684 S23.007815901065033 15.408166907932266 8.81702628169167 21.286184429060047 S15.36 7.679999999999999 4.702643708725836e-16 7.68 S5.373763337681696 27.164201950187824 -8.817026281691668 21.286184429060047 S5.430580079512686 16.291740238538054 -5.430580079512684 5.430580079512685 S-15.408166907932266 23.007815901065037 -21.286184429060047 8.817026281691671 S-7.679999999999998 15.360000000000001 -7.68 9.405287417451672e-16 S-27.164201950187824 5.3737633376817 -21.286184429060047 -8.817026281691666 S-16.291740238538054 5.430580079512688 -5.430580079512686 -5.430580079512684 S-23.007815901065044 -15.408166907932252 -8.817026281691682 -21.28618442906004 S-15.360000000000001 -7.679999999999997 -1.4107931126177507e-15 -7.68 S-5.373763337681689 -27.164201950187824 8.817026281691673 -21.286184429060043 S-5.430580079512689 -16.291740238538054 5.4305800795126835 -5.430580079512686 S15.408166907932252 -23.007815901065044 21.28618442906004 -8.817026281691682 S7.679999999999996 -15.360000000000001 7.68 -1.8810574834903343e-15" fill="#1c2c68" stroke-width="0" transform="matrix(1,0,0,1,0,0)" style="transform:matrix(1, 0, 0, 1, 0, 0);animation-play-state:paused" ></path></g>
<g transform="translate(2071.3392190830446,-820.8392190830441) scale(100)" opacity="0.9" style="transform:matrix(100, 0, 0, 100, 2071.34, -820.839);opacity:0.9;animation-play-state:paused" ><path d="M9.216 0 C9.216 18.432 32.597042340225386 -6.448516005218037 25.543421314872052 10.58043153803 S19.550088286245664 -6.516696095415223 6.516696095415222 6.516696095415221 S27.60937908127804 18.48980028951872 10.580431538030002 25.543421314872052 S18.432 9.215999999999998 5.643172450471003e-16 9.216 S6.448516005218037 32.597042340225386 -10.58043153803 25.543421314872052 S6.516696095415223 19.550088286245664 -6.516696095415221 6.516696095415222 S-18.489800289518715 27.609379081278043 -25.543421314872052 10.580431538030004 S-9.215999999999998 18.432 -9.216 1.1286344900942006e-15 S-32.597042340225386 6.448516005218039 -25.543421314872056 -10.580431538029998 S-19.550088286245664 6.516696095415225 -6.516696095415223 -6.516696095415221 S-27.609379081278046 -18.4898002895187 -10.580431538030016 -25.543421314872045 S-18.432 -9.215999999999996 -1.6929517351413009e-15 -9.216 S-6.448516005218027 -32.597042340225386 10.580431538030007 -25.54342131487205 S-6.5166960954152255 -19.550088286245664 6.51669609541522 -6.516696095415223 S18.489800289518698 -27.60937908127805 25.543421314872045 -10.580431538030018 S9.215999999999994 -18.432000000000002 9.216 -2.257268980188401e-15" fill="#8dba19" stroke-width="0" transform="matrix(1,0,0,1,0,0)" style="transform:matrix(1, 0, 0, 1, 0, 0);animation-play-state:paused" ></path></g></g></svg>