<?xml version="1.0" encoding="utf-8"?><svg xmlns="http://www.w3.org/2000/svg" xmlns:xlink="http://www.w3.org/1999/xlink" width="1536" height="965" preserveAspectRatio="xMidYMid" viewBox="0 0 1536 965" style="z-index:1;margin-right:-2px;display:block;background-repeat-y:initial;background-repeat-x:initial;animation-play-state:paused" ><g transform="translate(768,482.5) scale(1,1) translate(-768,-482.5)" style="transform:matrix(1, 0, 0, 1, 0, 0);animation-play-state:paused" ><g transform="translate(1854.1160159025371,-603.6160159025369) scale(100)" opacity="0.9" style="transform:matrix(100, 0, 0, 100, 1854.12, -603.616);opacity:0.9;animation-play-state:paused" ><path d="M7.68 0 C7.68 15.36 26.23039157047485 -8.873429892638011 22.254931037700132 5.963190799162078 S14.331075101064489 -9.462150202128978 6.651075101064489 3.8399999999999994 S27.15290039756342 5.4305800795126835 16.291740238538054 16.291740238538054 S17.142150202128978 -1.0289248989355135 3.8400000000000007 6.651075101064488 S20.79981149096217 18.27947050492541 5.963190799162083 22.254931037700132 S15.36 7.679999999999999 4.702643708725836e-16 7.68 S8.873429892638015 26.23039157047485 -5.963190799162075 22.254931037700132 S9.46215020212898 14.331075101064485 -3.839999999999998 6.651075101064489 S-5.4305800795126835 27.15290039756342 -16.291740238538054 16.291740238538054 S1.028924898935518 17.142150202128978 -6.651075101064487 3.8400000000000025 S-18.27947050492541 20.79981149096217 -22.254931037700132 5.963190799162084 S-7.679999999999998 15.360000000000001 -7.68 9.405287417451672e-16 S-26.230391570474847 8.873429892638022 -22.254931037700135 -5.963190799162069 S-14.331075101064485 9.462150202128981 -6.65107510106449 -3.8399999999999976 S-27.152900397563428 -5.430580079512671 -16.291740238538065 -16.291740238538047 S-17.142150202128978 1.0289248989355197 -3.8400000000000034 -6.651075101064487 S-20.79981149096218 -18.2794705049254 -5.963190799162096 -22.25493103770013 S-15.360000000000001 -7.679999999999997 -1.4107931126177507e-15 -7.68 S-8.873429892638024 -26.230391570474847 5.963190799162067 -22.254931037700135 S-9.462150202128988 -14.331075101064481 3.8399999999999945 -6.6510751010644915 S5.430580079512678 -27.152900397563425 16.29174023853805 -16.291740238538058 S-1.0289248989355206 -17.142150202128974 6.651075101064486 -3.8400000000000034 S18.2794705049254 -20.79981149096218 22.25493103770013 -5.9631907991620965 S7.679999999999996 -15.360000000000001 7.68 -1.8810574834903343e-15" fill="#1c2c68" stroke-width="0" transform="matrix(1,0,0,1,0,0)" style="transform:matrix(1, 0, 0, 1, 0, 0);animation-play-state:paused" ></path></g>
<g transform="translate(2071.3392190830446,-820.8392190830441) scale(100)" opacity="0.9" style="transform:matrix(100, 0, 0, 100, 2071.34, -820.839);opacity:0.9;animation-play-state:paused" ><path d="M9.216 0 C9.216 18.432 31.47646988456982 -10.648115871165613 26.70591724524016 7.155828958994492 S17.197290121277383 -11.354580242554775 7.981290121277387 4.607999999999999 S32.58348047707611 6.516696095415217 19.550088286245664 19.55008828624566 S20.570580242554772 -1.2347098787226152 4.6080000000000005 7.981290121277386 S24.9597737891546 21.93536460591049 7.155828958994499 26.705917245240155 S18.432 9.215999999999998 5.643172450471003e-16 9.216 S10.648115871165615 31.476469884569816 -7.15582895899449 26.70591724524016 S11.354580242554775 17.197290121277383 -4.607999999999998 7.981290121277387 S-6.516696095415217 32.58348047707611 -19.55008828624566 19.550088286245664 S1.2347098787226205 20.57058024255477 -7.981290121277384 4.608000000000002 S-21.935364605910486 24.959773789154603 -26.705917245240155 7.1558289589945 S-9.215999999999998 18.432 -9.216 1.1286344900942006e-15 S-31.476469884569813 10.648115871165627 -26.70591724524016 -7.155828958994482 S-17.197290121277383 11.354580242554778 -7.981290121277388 -4.607999999999997 S-32.58348047707611 -6.516696095415204 -19.550088286245675 -19.550088286245654 S-20.570580242554772 1.234709878722624 -4.608000000000004 -7.981290121277384 S-24.959773789154617 -21.935364605910475 -7.155828958994514 -26.70591724524015 S-18.432 -9.215999999999996 -1.6929517351413009e-15 -9.216 S-10.64811587116563 -31.476469884569813 7.15582895899448 -26.70591724524016 S-11.354580242554785 -17.197290121277376 4.607999999999993 -7.9812901212773895 S6.516696095415211 -32.58348047707611 19.550088286245657 -19.550088286245668 S-1.234709878722625 -20.57058024255477 7.981290121277383 -4.608000000000004 S21.935364605910472 -24.959773789154617 26.70591724524015 -7.155828958994515 S9.215999999999994 -18.432000000000002 9.216 -2.257268980188401e-15" fill="#8dba19" stroke-width="0" transform="matrix(1,0,0,1,0,0)" style="transform:matrix(1, 0, 0, 1, 0, 0);animation-play-state:paused" ></path></g></g></svg>