<?xml version="1.0" encoding="utf-8"?><svg xmlns="http://www.w3.org/2000/svg" xmlns:xlink="http://www.w3.org/1999/xlink" width="1536" height="732" preserveAspectRatio="xMidYMid" viewBox="0 0 1536 732" style="z-index:1;margin-right:-2px;display:block;background-repeat-y:initial;background-repeat-x:initial;background-color:rgb(255, 255, 255);animation-play-state:paused" ><g transform="translate(768,366) scale(1,1) translate(-768,-366)" style="transform:matrix(1, 0, 0, 1, 0, 0);animation-play-state:paused" ><g transform="translate(1843.2,366) scale(100)" opacity="0.9" style="transform:matrix(100, 0, 0, 100, 1843.2, 366);opacity:0.9;animation-play-state:paused" ><path d="M6.021120000000001 0 C6.021120000000001 4.73088 14.293286769277387 7.602812111317758 10.948049440297574 10.948049440297572 S4.73088 6.021120000000001 3.686872667641056e-16 6.021120000000001 S-7.602812111317758 14.293286769277387 -10.948049440297572 10.948049440297574 S-6.02112 4.730880000000001 -6.021120000000001 7.373745335282112e-16 S-14.293286769277389 -7.602812111317757 -10.948049440297575 -10.948049440297572 S-4.730880000000001 -6.02112 -1.1060618002923167e-15 -6.021120000000001 S7.602812111317755 -14.293286769277389 10.94804944029757 -10.948049440297575 S6.02112 -4.730880000000002 6.021120000000001 -1.4747490670564225e-15" fill="#1c2c68" stroke-width="0" transform="matrix(1,0,0,1,0,0)" style="transform:matrix(1, 0, 0, 1, 0, 0);animation-play-state:paused" ></path></g>
<g transform="translate(2058.24,366) scale(100)" opacity="0.9" style="transform:matrix(100, 0, 0, 100, 2058.24, 366);opacity:0.9;animation-play-state:paused" ><path d="M7.225344000000001 0 C7.225344000000001 5.677055999999999 17.151944123132864 9.123374533581309 13.137659328357088 13.137659328357087 S5.677055999999999 7.225344000000001 4.4242472011692673e-16 7.225344000000001 S-9.123374533581309 17.151944123132864 -13.137659328357087 13.137659328357088 S-7.225344 5.677056 -7.225344000000001 8.8484944023385345e-16 S-17.151944123132864 -9.123374533581309 -13.13765932835709 -13.137659328357087 S-5.677056 -7.225344 -1.32727416035078e-15 -7.225344000000001 S9.123374533581307 -17.151944123132864 13.137659328357085 -13.13765932835709 S7.225343999999999 -5.677056000000001 7.225344000000001 -1.7696988804677069e-15" fill="#8dba19" stroke-width="0" transform="matrix(1,0,0,1,0,0)" style="transform:matrix(1, 0, 0, 1, 0, 0);animation-play-state:paused" ></path></g></g></svg>