<?xml version="1.0" encoding="utf-8"?><svg xmlns="http://www.w3.org/2000/svg" xmlns:xlink="http://www.w3.org/1999/xlink" width="1536" height="796" preserveAspectRatio="xMidYMid" viewBox="0 0 1536 796" style="z-index:1;margin-right:-2px;display:block;background-repeat-y:initial;background-repeat-x:initial;background-color:rgb(255, 255, 255);animation-play-state:paused" ><g transform="translate(768,398) scale(1,1) translate(-768,-398)" style="transform:matrix(1, 0, 0, 1, 0, 0);animation-play-state:paused" ><g transform="translate(1920.0000000000002,398) scale(100)" opacity="0.9" style="transform:matrix(100, 0, 0, 100, 1920, 398);opacity:0.9;animation-play-state:paused" ><path d="M5.760000000000002 0 C5.760000000000002 2.6496000000000004 16.978596344189583 4.164858501926847 15.96463832179504 6.612769711268753 S5.946485187066392 2.199384932202638 4.072935059634515 4.072935059634514 S9.06068092061066 14.950680299400497 6.612769711268754 15.96463832179504 S2.649600000000001 5.760000000000002 3.5269827815443783e-16 5.760000000000002 S-4.164858501926847 16.978596344189583 -6.6127697112687525 15.96463832179504 S-2.199384932202638 5.946485187066392 -4.072935059634514 4.072935059634515 S-14.950680299400497 9.060680920610661 -15.96463832179504 6.612769711268755 S-5.760000000000002 2.6496000000000013 -5.760000000000002 7.053965563088757e-16 S-16.978596344189583 -4.164858501926846 -15.964638321795041 -6.612769711268752 S-5.946485187066393 -2.199384932202637 -4.072935059634516 -4.072935059634514 S-9.060680920610668 -14.950680299400492 -6.612769711268763 -15.964638321795036 S-2.6496000000000013 -5.760000000000001 -1.0580948344633134e-15 -5.760000000000002 S4.164858501926851 -16.97859634418958 6.612769711268757 -15.964638321795038 S2.199384932202636 -5.946485187066393 4.0729350596345135 -4.072935059634516 S14.950680299400492 -9.060680920610668 15.964638321795036 -6.612769711268764 S5.760000000000001 -2.6496000000000017 5.760000000000002 -1.4107931126177513e-15" fill="#1c2c68" stroke-width="0" transform="matrix(1,0,0,1,0,0)" style="transform:matrix(1, 0, 0, 1, 0, 0);animation-play-state:paused" ></path></g>
<g transform="translate(2150.4000000000005,398) scale(100)" opacity="0.9" style="transform:matrix(100, 0, 0, 100, 2150.4, 398);opacity:0.9;animation-play-state:paused" ><path d="M6.912000000000002 0 C6.912000000000002 3.1795200000000006 20.3743156130275 4.997830202312216 19.157565986154047 7.935323653522503 S7.135782224479669 2.639261918643165 4.887522071561418 4.887522071561417 S10.872817104732793 17.940816359280596 7.935323653522505 19.157565986154047 S3.179520000000001 6.912000000000002 4.2323793378532537e-16 6.912000000000002 S-4.997830202312215 20.3743156130275 -7.935323653522502 19.157565986154047 S-2.639261918643165 7.135782224479669 -4.887522071561417 4.887522071561418 S-17.940816359280596 10.872817104732793 -19.157565986154047 7.935323653522506 S-6.912000000000002 3.1795200000000015 -6.912000000000002 8.464758675706507e-16 S-20.3743156130275 -4.997830202312214 -19.157565986154047 -7.935323653522501 S-7.135782224479671 -2.6392619186431645 -4.887522071561419 -4.887522071561417 S-10.872817104732801 -17.94081635928059 -7.935323653522515 -19.15756598615404 S-3.179520000000002 -6.912000000000001 -1.269713801355976e-15 -6.912000000000002 S4.997830202312221 -20.374315613027495 7.935323653522508 -19.157565986154044 S2.6392619186431636 -7.13578222447967 4.887522071561416 -4.887522071561419 S17.94081635928059 -10.872817104732801 19.15756598615404 -7.935323653522516 S6.912000000000001 -3.1795200000000023 6.912000000000002 -1.6929517351413015e-15" fill="#8dba19" stroke-width="0" transform="matrix(1,0,0,1,0,0)" style="transform:matrix(1, 0, 0, 1, 0, 0);animation-play-state:paused" ></path></g></g></svg>