<svg id="visual" viewBox="0 0 1233 1368" width="1233" height="1368" xmlns="http://www.w3.org/2000/svg" xmlns:xlink="http://www.w3.org/1999/xlink" version="1.1"><rect x="0" y="0" width="1233" height="1368" fill="#ffffff"></rect><g transform="translate(1524.940828849904 1651.2246963634846)"><path d="M26.2 -30.3C52.3 -17 104.6 -34 363.5 50.1C622.3 134.2 1087.7 319.4 1084.4 359.3C1081 399.3 609 293.9 350.1 330.3C91.3 366.7 45.7 544.8 11 529.7C-23.7 514.6 -47.4 306.3 -340.6 281C-633.7 255.8 -1196.4 413.6 -1462.7 306.9C-1729 200.2 -1699.1 -171 -1583 -510.1C-1467 -849.1 -1264.8 -1155.9 -986.7 -1087.4C-708.5 -1018.8 -354.2 -574.9 -177.1 -331.1C0 -87.3 0 -43.7 26.2 -30.3" fill="#1c2c68"></path></g></svg>