<svg id="visual" viewBox="0 0 960 540" width="960" height="540" xmlns="http://www.w3.org/2000/svg" xmlns:xlink="http://www.w3.org/1999/xlink" version="1.1"><rect width="960" height="540" fill="#ffffff"></rect><g><g transform="translate(152 482)"><path d="M21.7 -12.9C26.2 -4.8 26.6 5.4 22.3 13.8C18 22.2 9 28.9 0 28.9C-9 28.9 -18.1 22.3 -23.3 13.3C-28.5 4.4 -30 -6.9 -25.4 -15C-20.9 -23.1 -10.5 -28.1 -0.9 -27.5C8.6 -27 17.2 -21 21.7 -12.9Z" fill="#1c2c68"></path></g><g transform="translate(675 333)"><path d="M8.3 -4.6C10.1 -1.6 10.5 2.4 8.9 5.1C7.3 7.8 3.7 9.2 0 9.2C-3.6 9.2 -7.2 7.7 -8.6 5.1C-10.1 2.5 -9.4 -1.2 -7.6 -4.2C-5.8 -7.3 -2.9 -9.5 0.2 -9.6C3.2 -9.7 6.4 -7.7 8.3 -4.6Z" fill="#1c2c68"></path></g><g transform="translate(154 36)"><path d="M13.1 -8.3C15.4 -3.5 14.7 2.3 12 6.9C9.3 11.5 4.6 15 -0.4 15.3C-5.5 15.5 -11.1 12.5 -13.7 7.9C-16.4 3.3 -16.3 -3 -13.5 -8C-10.7 -13.1 -5.4 -16.8 0 -16.8C5.4 -16.8 10.8 -13.1 13.1 -8.3Z" fill="#1c2c68"></path></g><g transform="translate(788 188)"><path d="M16.6 -9.7C19.5 -4.4 18.7 2.9 15.3 8.4C11.9 13.9 5.9 17.5 -0.1 17.6C-6.2 17.7 -12.4 14.2 -15.3 9C-18.2 3.8 -17.8 -3.1 -14.7 -8.5C-11.6 -13.9 -5.8 -17.7 0.5 -17.9C6.8 -18.2 13.6 -15 16.6 -9.7Z" fill="#1c2c68"></path></g><g transform="translate(927 513)"><path d="M13.8 -7.3C16.8 -2.8 17.3 3.8 14.6 8.4C11.9 13.1 6 15.8 0.3 15.7C-5.4 15.5 -10.8 12.5 -13.8 7.6C-16.8 2.8 -17.4 -3.8 -14.7 -8.1C-12 -12.5 -6 -14.7 -0.3 -14.5C5.4 -14.3 10.8 -11.8 13.8 -7.3Z" fill="#1c2c68"></path></g></g></svg>