<svg id="visual" viewBox="0 0 1519 374" width="1519" height="374" xmlns="http://www.w3.org/2000/svg" xmlns:xlink="http://www.w3.org/1999/xlink" version="1.1"><rect width="1519" height="374" fill="#ffffff"></rect><g><g transform="translate(475 241)"><path d="M28.8 -10C32.3 1.6 26.8 15.4 15.4 24.5C4 33.6 -13.4 37.9 -22.6 31.2C-31.8 24.5 -32.9 6.7 -27.8 -7C-22.7 -20.7 -11.4 -30.4 0.6 -30.6C12.6 -30.8 25.2 -21.6 28.8 -10Z" fill="#1c2c68"></path></g><g transform="translate(163 244)"><path d="M11.4 -4.6C13.3 2.2 12.4 9 8 12.6C3.6 16.1 -4.3 16.4 -9.6 12.7C-15 8.9 -17.8 1.1 -15.7 -5.8C-13.7 -12.7 -6.9 -18.7 -1.1 -18.4C4.8 -18 9.5 -11.3 11.4 -4.6Z" fill="#1c2c68"></path></g><g transform="translate(1396 270)"><path d="M15.3 -6.5C17.2 1.1 14.5 8.6 8.9 12.8C3.4 16.9 -5 17.6 -11.2 13.5C-17.4 9.5 -21.6 0.6 -19.3 -7.3C-17.1 -15.2 -8.6 -22.1 -0.9 -21.8C6.7 -21.5 13.3 -14 15.3 -6.5Z" fill="#1c2c68"></path></g><g transform="translate(712 233)"><path d="M37.5 -11C42.1 2.1 35 20.3 23.5 27.5C12 34.8 -4 31.1 -16.7 22.1C-29.3 13.1 -38.7 -1.2 -35.4 -12.6C-32 -24 -16 -32.3 0.2 -32.4C16.4 -32.4 32.8 -24.2 37.5 -11Z" fill="#1c2c68"></path></g><g transform="translate(1184 139)"><path d="M30.1 -9.7C33 -1 25.1 11.4 13.9 19.6C2.8 27.7 -11.6 31.8 -20.9 25.8C-30.2 19.7 -34.4 3.6 -30.1 -7.2C-25.7 -18.1 -12.9 -23.6 0.4 -23.7C13.6 -23.8 27.2 -18.5 30.1 -9.7Z" fill="#1c2c68"></path></g><g transform="translate(399 99)"><path d="M17.2 -7.1C19.5 1.4 16.6 10.1 10.7 14.2C4.9 18.4 -3.9 17.9 -10.3 13.5C-16.7 9 -20.6 0.5 -18.5 -7.9C-16.4 -16.2 -8.2 -24.4 -0.4 -24.3C7.5 -24.2 14.9 -15.7 17.2 -7.1Z" fill="#1c2c68"></path></g></g></svg>