<svg id="visual" viewBox="0 0 1519 374" width="1519" height="374" xmlns="http://www.w3.org/2000/svg" xmlns:xlink="http://www.w3.org/1999/xlink" version="1.1"><rect width="1519" height="374" fill="#ffffff"></rect><g><g transform="translate(670 254)"><path d="M36.5 -8.2C41.6 3.8 36.1 22.9 23 32.6C10 42.2 -10.5 42.4 -24.1 32.6C-37.7 22.9 -44.4 3.1 -39.2 -9C-34.1 -21.1 -17 -25.5 -0.7 -25.3C15.7 -25.1 31.5 -20.2 36.5 -8.2Z" fill="#8dba19"></path></g><g transform="translate(247 198)"><path d="M22.7 -6.1C25.7 2 22 13.6 13.9 19.6C5.8 25.5 -6.7 25.9 -14.5 20.2C-22.4 14.4 -25.6 2.5 -22.5 -5.8C-19.3 -14.2 -9.6 -19 0.1 -19C9.8 -19 19.6 -14.3 22.7 -6.1Z" fill="#8dba19"></path></g><g transform="translate(992 122)"><path d="M22.5 -5.1C26.6 5.4 25.7 19.7 17.2 26.5C8.7 33.4 -7.3 32.7 -16.9 25.3C-26.4 17.9 -29.4 3.7 -25.5 -6.5C-21.6 -16.6 -10.8 -22.7 -0.8 -22.5C9.2 -22.2 18.4 -15.6 22.5 -5.1Z" fill="#8dba19"></path></g><g transform="translate(1446 193)"><path d="M26.3 -7.2C29.5 1.2 24.3 13.7 15.4 19.8C6.5 26 -6 25.7 -14.6 19.6C-23.3 13.4 -28 1.4 -24.9 -6.9C-21.9 -15.2 -10.9 -19.8 0.3 -19.9C11.6 -20 23.1 -15.6 26.3 -7.2Z" fill="#8dba19"></path></g><g transform="translate(1150 108)"><path d="M19.8 -5.4C22.4 1.5 18.9 11.3 12.4 15.8C5.8 20.2 -3.7 19.3 -10.4 14.4C-17.1 9.5 -20.9 0.7 -18.7 -5.7C-16.5 -12.1 -8.3 -16.1 0.2 -16.2C8.6 -16.3 17.2 -12.3 19.8 -5.4Z" fill="#8dba19"></path></g><g transform="translate(170 290)"><path d="M18.9 -6.4C21.2 1 17.6 10.1 11.1 14.7C4.5 19.4 -4.9 19.5 -11.3 15C-17.6 10.5 -20.9 1.3 -18.5 -6.2C-16.1 -13.7 -8.1 -19.5 0.1 -19.5C8.3 -19.6 16.6 -13.8 18.9 -6.4Z" fill="#8dba19"></path></g></g></svg>