<svg id="visual" viewBox="0 0 1519 374" width="1519" height="374" xmlns="http://www.w3.org/2000/svg" xmlns:xlink="http://www.w3.org/1999/xlink" version="1.1"><rect x="0" y="0" width="1519" height="374" fill="#ffffff"></rect><path d="M0 293L506 293L506 293L1013 293L1013 293L1519 293L1519 293L1519 375L1519 375L1013 375L1013 375L506 375L506 375L0 375Z" fill="#acce5b"></path><path d="M0 306L506 306L506 306L1013 306L1013 306L1519 306L1519 306L1519 375L1519 375L1013 375L1013 375L506 375L506 375L0 375Z" fill="#a0c645"></path><path d="M0 319L506 319L506 319L1013 319L1013 319L1519 319L1519 319L1519 375L1519 375L1013 375L1013 375L506 375L506 375L0 375Z" fill="#93be2b"></path><path d="M0 331L506 331L506 331L1013 331L1013 331L1519 331L1519 331L1519 375L1519 375L1013 375L1013 375L506 375L506 375L0 375Z" fill="#85b018"></path><path d="M0 344L506 344L506 344L1013 344L1013 344L1519 344L1519 344L1519 375L1519 375L1013 375L1013 375L506 375L506 375L0 375Z" fill="#769c17"></path><path d="M0 357L506 357L506 357L1013 357L1013 357L1519 357L1519 357L1519 375L1519 375L1013 375L1013 375L506 375L506 375L0 375Z" fill="#678815"></path></svg>