<svg id="visual" viewBox="0 0 1519 360" width="1519" height="360" xmlns="http://www.w3.org/2000/svg" xmlns:xlink="http://www.w3.org/1999/xlink" version="1.1"><rect x="0" y="0" width="1519" height="360" fill="#8dba19"></rect><g transform="translate(763.4637534629934 154.7657642948576)"><path d="M89.2 -105.3C113.6 -85.7 130.2 -55.8 140.7 -21.1C151.2 13.6 155.7 53 140.4 82.4C125.1 111.8 89.9 131.1 50.4 150.9C10.8 170.7 -33.1 191.1 -66.6 180.1C-100.1 169.1 -123.2 126.8 -139.1 86.5C-155 46.2 -163.7 7.9 -154.4 -24.1C-145 -56.2 -117.7 -82 -89 -100.7C-60.3 -119.5 -30.1 -131.2 1.1 -132.6C32.4 -133.9 64.7 -124.8 89.2 -105.3" fill="#ffffff"></path></g></svg>