<svg id="visual" viewBox="0 0 180 60" width="180" height="60" xmlns="http://www.w3.org/2000/svg" xmlns:xlink="http://www.w3.org/1999/xlink" version="1.1"><path d="M0 35L1.8 33.8C3.7 32.7 7.3 30.3 10.8 31.3C14.3 32.3 17.7 36.7 21.2 35.8C24.7 35 28.3 29 31.8 25.7C35.3 22.3 38.7 21.7 42.2 22.7C45.7 23.7 49.3 26.3 53 25.8C56.7 25.3 60.3 21.7 63.8 22.5C67.3 23.3 70.7 28.7 74.2 32.2C77.7 35.7 81.3 37.3 84.8 37.3C88.3 37.3 91.7 35.7 95.2 31.5C98.7 27.3 102.3 20.7 105.8 21.7C109.3 22.7 112.7 31.3 116.2 34C119.7 36.7 123.3 33.3 127 29.5C130.7 25.7 134.3 21.3 137.8 20.3C141.3 19.3 144.7 21.7 148.2 22.8C151.7 24 155.3 24 158.8 22.5C162.3 21 165.7 18 169.2 17.8C172.7 17.7 176.3 20.3 178.2 21.7L180 23L180 61L178.2 61C176.3 61 172.7 61 169.2 61C165.7 61 162.3 61 158.8 61C155.3 61 151.7 61 148.2 61C144.7 61 141.3 61 137.8 61C134.3 61 130.7 61 127 61C123.3 61 119.7 61 116.2 61C112.7 61 109.3 61 105.8 61C102.3 61 98.7 61 95.2 61C91.7 61 88.3 61 84.8 61C81.3 61 77.7 61 74.2 61C70.7 61 67.3 61 63.8 61C60.3 61 56.7 61 53 61C49.3 61 45.7 61 42.2 61C38.7 61 35.3 61 31.8 61C28.3 61 24.7 61 21.2 61C17.7 61 14.3 61 10.8 61C7.3 61 3.7 61 1.8 61L0 61Z" fill="#8DBA19" stroke-linecap="round" stroke-linejoin="miter"></path></svg>