<svg id="visual" viewBox="0 0 1200 200" width="1200" height="200" xmlns="http://www.w3.org/2000/svg" xmlns:xlink="http://www.w3.org/1999/xlink" version="1.1"><rect x="0" y="0" width="1200" height="200" fill="#ffffff"></rect><path d="M0 54L15.3 70.5C30.7 87 61.3 120 92.2 127.8C123 135.7 154 118.3 184.8 119.5C215.7 120.7 246.3 140.3 277 140.3C307.7 140.3 338.3 120.7 369.2 97.7C400 74.7 431 48.3 461.8 34.5C492.7 20.7 523.3 19.3 554 28.5C584.7 37.7 615.3 57.3 646 67.7C676.7 78 707.3 79 738.2 87C769 95 800 110 830.8 107.2C861.7 104.3 892.3 83.7 923 89.2C953.7 94.7 984.3 126.3 1015.2 126.7C1046 127 1077 96 1107.8 79.2C1138.7 62.3 1169.3 59.7 1184.7 58.3L1200 57L1200 0L1184.7 0C1169.3 0 1138.7 0 1107.8 0C1077 0 1046 0 1015.2 0C984.3 0 953.7 0 923 0C892.3 0 861.7 0 830.8 0C800 0 769 0 738.2 0C707.3 0 676.7 0 646 0C615.3 0 584.7 0 554 0C523.3 0 492.7 0 461.8 0C431 0 400 0 369.2 0C338.3 0 307.7 0 277 0C246.3 0 215.7 0 184.8 0C154 0 123 0 92.2 0C61.3 0 30.7 0 15.3 0L0 0Z" fill="#1c2c68" stroke-linecap="round" stroke-linejoin="miter"></path></svg>