<svg id="visual" viewBox="0 0 1519 500" width="1519" height="500" xmlns="http://www.w3.org/2000/svg" xmlns:xlink="http://www.w3.org/1999/xlink" version="1.1"><rect x="0" y="0" width="1519" height="500" fill="#1c2c68"></rect><g transform="translate(748.4658654481581 238.57907078781898)"><path d="M84.5 -130C111.4 -130.9 136.2 -111.9 148.6 -87C161.1 -62 161 -31 150.9 -5.8C140.8 19.3 120.6 38.7 108.1 63.3C95.5 88 90.5 118.1 73.7 136.4C57 154.7 28.5 161.4 8.4 146.8C-11.7 132.3 -23.4 96.6 -40.9 78.7C-58.4 60.8 -81.6 60.6 -101.9 50.5C-122.2 40.3 -139.6 20.2 -135.6 2.3C-131.5 -15.5 -106 -31 -95.5 -58.1C-84.9 -85.1 -89.3 -123.8 -75.9 -130.7C-62.5 -137.6 -31.3 -112.8 -1.2 -110.7C28.8 -108.6 57.7 -129.2 84.5 -130" fill="#ffffff"></path></g></svg>