<svg id="visual" viewBox="0 0 1519 360" width="1519" height="360" xmlns="http://www.w3.org/2000/svg" xmlns:xlink="http://www.w3.org/1999/xlink" version="1.1"><rect x="0" y="0" width="1519" height="360" fill="#ffffff"></rect><path d="M0 124L14.8 130.8C29.7 137.7 59.3 151.3 89.2 186.2C119 221 149 277 178.8 263.7C208.7 250.3 238.3 167.7 268 145.8C297.7 124 327.3 163 357.2 199.2C387 235.3 417 268.7 446.8 250.7C476.7 232.7 506.3 163.3 536 125C565.7 86.7 595.3 79.3 625.2 104.2C655 129 685 186 714.8 232C744.7 278 774.3 313 804.2 329C834 345 864 342 893.8 300.3C923.7 258.7 953.3 178.3 983 163.5C1012.7 148.7 1042.3 199.3 1072.2 233.2C1102 267 1132 284 1161.8 275C1191.7 266 1221.3 231 1251 205.2C1280.7 179.3 1310.3 162.7 1340.2 178.7C1370 194.7 1400 243.3 1429.8 241.5C1459.7 239.7 1489.3 187.3 1504.2 161.2L1519 135L1519 361L1504.2 361C1489.3 361 1459.7 361 1429.8 361C1400 361 1370 361 1340.2 361C1310.3 361 1280.7 361 1251 361C1221.3 361 1191.7 361 1161.8 361C1132 361 1102 361 1072.2 361C1042.3 361 1012.7 361 983 361C953.3 361 923.7 361 893.8 361C864 361 834 361 804.2 361C774.3 361 744.7 361 714.8 361C685 361 655 361 625.2 361C595.3 361 565.7 361 536 361C506.3 361 476.7 361 446.8 361C417 361 387 361 357.2 361C327.3 361 297.7 361 268 361C238.3 361 208.7 361 178.8 361C149 361 119 361 89.2 361C59.3 361 29.7 361 14.8 361L0 361Z" fill="#8dba19" stroke-linecap="round" stroke-linejoin="miter"></path></svg>