<svg id="visual" viewBox="0 0 1519 360" width="1519" height="360" xmlns="http://www.w3.org/2000/svg" xmlns:xlink="http://www.w3.org/1999/xlink" version="1.1"><rect x="0" y="0" width="1519" height="360" fill="#1c2c68"></rect><path d="M0 61L25.3 74.7C50.7 88.3 101.3 115.7 152 136.3C202.7 157 253.3 171 304 161.7C354.7 152.3 405.3 119.7 456 106.5C506.7 93.3 557.3 99.7 608 133.2C658.7 166.7 709.3 227.3 759.8 221.7C810.3 216 860.7 144 911.2 124.5C961.7 105 1012.3 138 1063 164.3C1113.7 190.7 1164.3 210.3 1215 207.3C1265.7 204.3 1316.3 178.7 1367 147.5C1417.7 116.3 1468.3 79.7 1493.7 61.3L1519 43L1519 0L1493.7 0C1468.3 0 1417.7 0 1367 0C1316.3 0 1265.7 0 1215 0C1164.3 0 1113.7 0 1063 0C1012.3 0 961.7 0 911.2 0C860.7 0 810.3 0 759.8 0C709.3 0 658.7 0 608 0C557.3 0 506.7 0 456 0C405.3 0 354.7 0 304 0C253.3 0 202.7 0 152 0C101.3 0 50.7 0 25.3 0L0 0Z" fill="#8DBA19" stroke-linecap="round" stroke-linejoin="miter"></path></svg>